<svg version="1" xmlns="http://www.w3.org/2000/svg" width="1333.333" height="1333.333" viewBox="0 0 1000.000000 1000.000000"><path d="M483.7 95.6c-.1.1-5.3.5-11.5.9-6.2.3-12.1.8-13 1-1 .2-4.7.6-8.3.9-7.2.7-7.6.8-23.4 3.7-40.5 7.4-84.5 23.5-120 43.8-9.4 5.4-33.8 21-38.5 24.7-25.7 20.2-50.3 42.9-65.6 60.9-14 16.3-32.7 42.6-42.4 59.6-11.5 20.1-24.1 48.5-32.3 72.4-3.3 9.6-10 34.3-11.2 41.4-.3 1.9-.7 3.7-.9 4-.2.3-.7 2.8-1 5.6-.4 2.7-1.1 6.8-1.6 9s-1.1 6.8-1.5 10.2c-.3 3.4-.8 7.1-1 8.2-2.6 13.8-2.7 74.9 0 89.1.1.8.6 4.2 1 7.5.7 6.9 3 20.3 5 29.5.3 1.4.7 3.4.9 4.5 5.8 29.7 23.1 74.3 41 106 6.3 11 21.1 34.3 22.6 35.5.3.3 1.7 2.1 3 4 2.5 3.7 17.3 22.1 22.5 28 9.7 11 34.7 35 44 42.1 1.7 1.3 3.2 2.6 3.5 2.9 1.8 2.1 20.3 15.6 30.9 22.5 23.3 15.1 43.9 25.9 68.1 35.7 7.9 3.2 29.4 10.8 32.1 11.3.9.2 4.7 1.2 8.5 2.4 8.6 2.5 25.8 6.5 34.4 8 3.6.6 7.4 1.3 8.5 1.5 1.1.2 4.5.7 7.5 1.1 3 .4 6.2.9 7 1 .8.2 5.3.6 10 1s9.9.9 11.5 1.1c9.8 1.1 55.6.4 64.5-1.1 1.4-.2 5.4-.7 9-1 3.6-.4 7.4-.9 8.5-1.1 1.1-.2 4-.7 6.5-1 18-2.2 62.8-14.1 75.7-20 1.7-.8 3.4-1.4 3.7-1.4 1.3 0 23.3-9.8 34.6-15.5 72.2-36.1 133.4-96.6 171-168.8 6.7-13.1 17.6-37.5 20-45.2.7-2.2 1.8-5.4 2.6-7 4-9 14.1-49 15.9-63 .3-2.2.7-4.7 1-5.5.2-.8.7-4 1.1-7 .3-3 .8-6.6.9-8 2.7-21.7 2.6-75.7-.1-90.4-.2-1.1-.6-4.2-.9-7-.3-2.8-1.7-11-3.1-18.3-11.2-60.6-35.7-116.2-73.3-165.8-4.2-5.5-7.8-10.2-8.1-10.5-.3-.3-2.7-3.2-5.5-6.5-7.5-9.1-35.9-37.2-46-45.6-43-35.5-87.8-59.7-139.5-75.2-11.6-3.5-35.1-9.1-42.5-10.2-2.2-.3-6.2-1-9-1.5-2.7-.5-7.5-1.2-10.5-1.5-3-.3-6.6-.8-8-1-8-1.3-57.2-2.9-58.3-1.9zm42.8 60.8c53.1 4.5 101.2 20 146.6 47.3 10.1 6 27.3 17.9 33.4 23 .6.5 2.3 1.8 3.9 3.1l2.9 2.2H651c-45.1 0-62.6.3-63.6 1.1-.8.6-1.4 2.2-1.4 3.5 0 1.3-.4 2.4-1 2.4-.5 0-1-1-1-2.3 0-3.5-1.9-4.7-7.1-4.7-4.3 0-5.5.5-10.8 5-7.7 6.4-28.4 27.2-51.6 51.8l-5.9 6.3-.1 18.2c-.1 10 .2 19 .7 20 .5.9.5 2.3.1 3-.4.6-.8 14.2-.8 30.2l-.1 29 2.8 3.5c3.3 4.1 3.4 5.2.8 9.5l-2 3.2 2.5 2.6c3.5 3.4 7.2 4.3 9.6 2.1 2.6-2.3 2.4-4.9-.5-7.1-2.3-1.9-2.3-2-.7-4.2l1.8-2.3 6.9 1.7 7 1.8-1 4.8c-.5 2.7-.7 5.1-.4 5.4.3.3 2.2-.4 4.2-1.6 2.7-1.5 4-1.9 4.8-1.1 1.4 1.4 1.7 5.2.6 7.5-1.2 2.4-5.7 4.1-7.3 2.7-1.8-1.5-2.5-.2-2.5 4.6 0 3.4.5 4.6 2.2 5.5l2.1 1.1-2.1 1.7c-1.5 1.1-1.9 2-1.3 3 .7 1.1 1.3 1.2 2.3.4 1-.8 2.3-.7 5 .7 2.6 1.2 4 1.4 4.7.7 1.6-1.6 1.3-3.7-.4-3.7-1 0-.7-1.1 1.4-4.3 1.6-2.3 3.1-5.2 3.5-6.3.5-1.5 1.4-2.1 3.1-2 2 .1 2.3.5 1.8 2.1-.9 2.4-.9 8.1 0 14.8.6 4.9-.9 11-2.9 11.4-.6.1-1.6-1.4-2.3-3.3-.7-1.9-1.8-3.5-2.4-3.5-5.6-.7-9.1-.4-10.4.9-1.3 1.4-1.8 1.3-4.3-.2-2.7-1.6-2.9-1.5-4.3.4-1.2 1.8-1.8 1.9-4.2 1-2.4-.9-3.2-.7-5.4 1.4-1.9 1.8-3.3 2.3-5.2 1.9-1.9-.3-2.8 0-3.3 1.3-1.2 3.1.4 5.3 4.5 6.4 3.7 1 3.9 1.3 3.9 5.2v4l-2.5-1.6c-2.9-1.9-5.9-2.1-7.2-.4-1.6 2-2.9 8.9-2.6 13.8.1 2.5.2 7 .2 10s-.1 23.1-.1 44.7l-.2 39.1 2.7 3.5c3.3 4.4 3.3 4.5.2 5.7-1.9.7-2.5 1.7-2.5 3.8 0 3.8 1.8 9.1 4.2 12.2 1.5 1.9 1.6 2.5.6 2.8-.7.3-1.8 1.1-2.5 2-1.3 1.5.1 2.9 10.1 9.9 3.7 2.6 3.9 2.6 5.2.9.7-1.1 1.5-2.4 1.7-3 .3-.7 1.5-.5 3.8.7 1.9.9 4.9 2.2 6.8 2.7 3.1.9 3.9.6 8.3-2.6 7.1-5.2 6.5-6.8-3.7-10.3-4.8-1.5-7-1.8-10-1.1s-4.5.5-6.2-.6c-1.3-.8-2.3-1.8-2.4-2.2-.6-5-.6-5 2.8-5.5 2.4-.4 4.4 0 7.1 1.6 3.3 1.9 5.5 2.2 19.7 2.6 8.8.3 21.1.4 27.4.3 9.4-.1 11.7.2 12.6 1.5.9 1.3 1.8 1.4 4.1.6 2.3-.8 3.7-.6 6.6.8 2 1 4 2.3 4.3 2.9.4.7 1.6.5 3.3-.5 5.7-3.1 13.2-4.2 20.2-2.9 3.6.7 7.9 1.8 9.5 2.5 4.4 1.8 6.4 2 8.3 1 1.2-.7 2.2-.5 3.5.7 2.1 1.8 5.1 1.8 15.8-.3 4-.7 7.4-1.3 7.5-1.2.1.1 2 3.2 4.3 6.9 5.2 8.3 7.4 8.4 6.5.2-.6-5-.5-5.4 1.4-5.4 1.6 0 2 .6 1.8 3.2-.1 3.1.1 3.3 4.9 4.4 5 1.1 13.1 4.1 15 5.4.6.4 1.9.5 3 .3 3-.7 19.3-.7 24.3 0 2.6.3 4.2.1 4.2-.5 0-.7.4-.7 1.3 0 .7.6 2.8.7 5.7.2 3.6-.7 4.6-.5 5.6.8 1.6 2.2 5.2 2.2 8.8 0 2.8-1.6 3.1-1.6 5.6.2 2.7 1.9 2.8 1.9 4.4.1.9-1 1.6-2.2 1.5-2.7-.4-2.3.3-2.5 2.7-1 1.5 1 4 1.6 6.1 1.4 3.2-.3 4.1-.9 6-4.6.1-.2 1 .1 2 .6 1.3.8 2.5.6 4.5-.6 1.6-.9 2.9-1.9 2.9-2.2.1-.3.2-5.2.3-10.9l.1-10.4-4.1-4.6-4.1-4.5-6.8 2.8c-3.7 1.6-7.5 3.7-8.4 4.7-1.4 1.5-2.8 1.7-7.1 1.4-12.6-1.1-16.8-1.7-22-3.2-3-.9-8.2-1.7-11.5-1.8-3.3-.1-8.5-.5-11.6-.9-3.4-.5-5.9-.4-6.2.1-.4.6-4.5-.1-10.2-1.6-7.1-1.9-9.5-3-9.3-4.1.3-1.3 3.5-1.5 20.2-1.8 12.9-.1 20.4-.6 21.3-1.4 1-.8 1.7-.7 2.8.8.8 1 1.5 2.2 1.5 2.6 0 .5 1.5.8 3.3.8 4.1 0 6.2-3.3 6.6-10.8.1-.6.8-1.2 1.6-1.2s1.5.6 1.6 1.2c.4 7.6 1.6 8.2 14.4 7.3 14.3-1 16.4-1 20.1-.2 2.4.5 3.7.2 5.5-1.6l2.4-2.2-.3-28c-.4-35.9-.4-33.9 0-55.3l.4-18.4-2.6-2.5c-1.3-1.4-3.7-3.1-5.2-3.9-2.1-1.1-2.8-2.2-2.8-4.4 0-2.7.3-3 3.3-3 6.6 0 7.3-1.4 7.2-14.5-.1-9.9-.4-11.8-1.8-12.6-1.6-.9-1.6-1.2 0-3.6 2.2-3.3 2.5-13.9.5-15.5-1.5-1.3-149.7-1.6-151-.4-.4.4-.5 4.2-.3 8.4.2 4.3.3 9 .3 10.7-.1 1.6-.3 20.3-.5 41.3-.3 30.9-.1 38.6 1 39.7.9 1 4.5 1.3 12.5 1.3 6.2 0 12.8 0 14.6.1l3.2.1v65h2.9c2.2 0 2.8.4 2.6 1.7-.2 1-.4 2.1-.4 2.5-.1.5-.8.8-1.6.8-2.3 0-3.5 3.4-3.5 9.9v6l-24.5-.1H630l-.2-64.1-.3-64.2-3.5.3c-6.3.7-13.4 3.6-14.5 5.9-.5 1.2-1.7 2.4-2.7 2.6-2 .6-2.2-.1-.9-3.6 1.5-3.8-.1-5.2-3.7-3.3-4.3 2.2-5.9 2-6.6-.9-.4-1.4-1.1-2.5-1.6-2.5-.6 0-.4-1.3.5-3 .8-1.6 1.5-3.6 1.5-4.5 0-1.9 1.4-1.9 4.3 0 2.6 1.7 12.1 4.1 19.3 5 4.9.6 5.1.5 6.8-2.7 1.2-2.2 1.6-4.9 1.4-8.3l-.3-5-3.7.1c-2.8.1-3.9-.4-4.9-2.2-1.5-2.9-1.8-2.9-16.1-.5-12.2 2.1-16.8 3.5-18 5.4-.5.9-1.4.8-3.5-.4-1.5-.9-3.6-1.5-4.5-1.4-1 .2-3.5.6-5.7 1-3.8.6-4 .5-7-3.9-3.2-4.6-3.9-8-2-9.2.6-.3 2-2.6 3.1-5 2-4.6 2.4-4.9 4.6-3.5 1 .6 1.3 2.5 1 6.1-.3 5.1-.1 5.4 2.8 7.2 1.7 1 3.8 1.6 4.7 1.2 2.4-.9 3.8-6.1 3.1-11.9-.4-3.4-.3-5.5.5-5.9 1.9-1.2 4.7 1.2 6.1 5.4 1.6 4.8 3.1 4.7 4.3-.3l.9-3.6 3.6 2.8c2.6 2 4.9 2.8 7.9 2.9 3.9.1 4.6-.4 9.1-5.3 4.8-5.2 6.2-5.8 6.2-2.7 0 2.4 3.1 5.2 5.7 5.2h2.3v-47.4c0-36.7.3-47.6 1.3-48.3.7-.6 10.8-1 24.5-1H679v29.9c0 17.2.4 30.7 1 31.7.8 1.6 1.6 1.7 6.1 1 2.8-.4 6.5-1.3 8.3-1.8 1.7-.5 6.5-1.2 10.6-1.5 14-.9 21.3-3.5 23-8.2.6-1.5 1.7-2.2 3-2.1 1.3.1 1.9.6 1.5 1.5-.6 1.5 1.3 4.5 2.4 3.8.3-.2 4.1-.7 8.4-1.1 4.3-.3 8.8-.8 9.9-1 1.2-.3 4.2-.7 6.7-1 2.5-.3 5.5-.7 6.6-.9 1.1-.2 4.5-.7 7.5-1.1 11.5-1.5 23.8-4.4 25.3-6 .9-.9 1.2-5.6 1.2-16.8l-.1-15.6 2.2 3.9c3.1 5.4 11.7 26.7 15.4 38.2 3.1 9.4 9.4 32.8 10.3 38.3 2.7 15.6 3.9 23.6 4.3 27.9.3 2.8.9 8.5 1.4 12.6.8 7.4.6 53.7-.3 57.5-.3 1.1-.8 5.1-1.2 9-.8 8.6-5 31.6-7.4 41-11.5 43.5-27 77-52.6 113.5-14 20.1-36.6 44.7-55.8 60.7l-3.8 3.2-6.7-2.5c-9.8-3.8-14.1-5.1-19.7-5.8-2.7-.3-6.1-.8-7.5-1-1.4-.3-6.1-1-10.5-1.6-4.4-.6-9.1-1.3-10.5-1.5-1.4-.2-7.2-1.1-13-2-5.8-.9-12.7-2.3-15.5-3-2.7-.8-6.1-1.6-7.5-1.9-1.4-.3-7-1.6-12.5-3s-13.1-2.7-17-3.1c-8-.6-15.2-1.2-24.5-2-11.7-1-19.4-1.6-25.3-2-5.5-.4-6.7 0-20.5 6.4-18.7 8.6-17.5 8.2-25.3 8.8-7.2.5-6.7.7-16.3-7.9-1.1-1-5.2-3.1-9.2-4.8l-7.3-3h-44.2l-5.9 3c-5.2 2.6-6.3 3.7-9.2 9.2-3.1 5.8-3.8 6.5-10.8 10-7.1 3.7-7.8 3.8-14.5 3.3-21.1-1.8-24-2.7-37.2-11.6l-11.7-7.9h-12.8c-10 0-14 .4-18.2 1.9-10.3 3.6-10.9 4.1-13.6 11.4-1.4 3.7-2.8 6.7-3.1 6.7-2.3 0-30.9-28.6-39.9-39.9-1.9-2.4-4-4.9-4.5-5.5-2.6-2.7-10.8-14-17.2-23.6-29.1-43.8-47.3-92.7-53.8-145-.3-2.5-.8-6.1-1.1-8-.9-6-1.2-53.2-.4-59 .4-3 1.1-9.1 1.5-13.5.4-4.4.8-8.2 1-8.5.2-.3.6-3 1-6 .3-3 .8-6.2 1-7 .2-.8.7-3 1-4.9.3-1.9.8-3.7 1-4.1.2-.4.7-2.2 1-4.1 2.1-12.6 12.8-44.7 20.7-62.3 4.5-10 4.7-10.2 6.9-6.6 1.8 2.8 2.2 3 8.3 3 6.4 0 6.4 0 6.8 3.1.4 2.7.1 3.2-2.4 4.1-3.7 1.3-5.4 4.4-3.7 6.4 1.9 2.3-.5 3.3-5 2.3-5.8-1.3-6.2-.3-6.4 16.4-.1 9.3.2 14.7.8 14.7.6 0 2.4-.9 4-2 4.5-3 4.5-3 3.6 5.2-.1.5-1.4.8-3 .8-5.1 0-5.4 1.3-5.3 22.6.1 17.5.3 19.8 1.9 21 2.5 2 29.2 18.4 29.9 18.4.3 0 3 1.6 6 3.5s5.6 3.5 5.8 3.5c.3 0 4.6 2.4 9.8 5.3 5.1 3 12.2 7 15.8 8.9 3.6 2 8.5 4.7 11 6 39.6 21.9 51.7 28.3 55.5 29.8 2.5.9 2.7.9 2.2-1-.4-1.7.7-2.6 2.6-1.9.1 0 2.2-.7 4.5-1.7 4.6-1.8 6.1-1.2 6.2 2.7 0 1.7-4.6 4.3-6.1 3.3-.5-.3-2.1-.8-3.6-1-2.4-.5-2.5-.3-1.2 1.2 1.4 1.7 22.6 16 25.2 17 1.2.4 1.4 5.4 1.4 28.8l-.1 28.4H322l-.1-16.1c0-8.9-.2-17.1-.4-18.2-.4-2.1-.7-15.3-.4-19.5.1-1.4 0-3.6-.3-5s-.2-3.4.2-4.5c.4-1.2.1-3.3-.9-5.3l-1.5-3.3-6.1.6c-3.3.4-7.1.8-8.5 1-1.4.2-4.7.6-7.5 1-2.7.3-6.6.8-8.5 1.1-1.9.3-10 1.4-18 2.4-8 1.1-15.6 2.2-16.9 2.5-1.2.2-4.2.7-6.6.9-6.4.8-26.5 4.4-34.2 6.2-10.1 2.3-13.3 3.9-13.4 6.6 0 1.3 0 17.4-.1 35.9 0 31.4.1 34.1 2 39 3.5 9.5 7.2 16.8 8.8 17.7 1.3.7 1.4 1.4.6 2.8-.8 1.4-.5 2.5 1.4 5 3.3 4.3 5.8 4.8 9.4 1.8l2.9-2.5 3.9 4.2c3.2 3.5 4.1 4 5.8 3.1 1.7-.9 2-.7 2.2 1.3.1 1.9-.6 2.8-3.3 4.1-1.9.8-3.9 2.2-4.5 2.9-1.2 1.5-.7 2 19.2 22.2l14 14.3h82.4l82.3-.1 8.4-8.2c8.4-8.2 13.7-15.3 13.7-18.2 0-1.1.6-1.4 2.5-.9 2 .5 3.4-.4 7.9-4.6 3.1-2.9 6.1-6.7 6.7-8.5.9-2.3 2.4-3.8 4.9-4.9 2.1-.9 6.7-4.8 10.4-8.6l6.6-7V470.5l-3.3-2c-11.2-6.8-36.9-21.4-66.2-37.5-2.7-1.5-14-7.7-25-13.7-11-6.1-22.5-12.4-25.5-14-9.4-5.1-19.3-10.5-24-13.1-2.5-1.4-7.6-4.2-11.4-6.3-3.9-2-7.9-5-9-6.6-3.5-5.1-10-11.3-11.8-11.3-3.2 0-12.9 4.1-14 6-1.1 1.7-1.4 1.7-4 .4-2.4-1.3-8.3-1.2-9.7.1-.2.3-1.7-.7-3.4-2.1-4.2-3.6-10.6-6.6-12.4-6-1.1.5-1.4 1.5-.9 3.6l.6 3h-14.9l.6-3.1c.6-2.9.4-3.1-1.8-2.4-1.3.4-4.7 2.5-7.6 4.6-5.9 4.4-7.8 4.8-8.6 1.9-.3-1.2-1.7-2.2-3.4-2.6-2.4-.5-3.1-1.3-4.3-5.1-.7-2.6-2.2-5.5-3.2-6.5-1.6-1.6-1.7-2.4-.7-6.1 1.9-7.3 2.3-7.6 7.3-6.5 4 .8 5.7.5 14.5-2.5l10-3.5 3.5 3.6 3.6 3.5 4-2.8c2.2-1.5 5.1-3.9 6.5-5.3 3.6-3.5 5.5-1.7 4.4 4.1-.6 3.4-.4 4.7 1 6.7 2 2.7 2 2.7 10.5 1.7 4.6-.6 6.4-.4 8.3.8 1.3.9 3.2 1.3 4.2 1 1.6-.5 1.7-1.1 1-4.3-1.2-5.4-1.1-7.2.6-7.2.8 0 1.6.4 1.6 1 .1.5.3 1.4.4 2 .1.5.3 1.9.4 3 0 1.1.7 2 1.4 2 2 0 13.7-11.4 13.7-13.3 0-1.5 2.2-1.7 22.8-1.7h22.9l.1 7.1c.1 3.9.3 7.4.6 7.7 1 .9 7 .9 13.2.1 4.8-.6 6.6-.4 10.1 1.1 2.4 1 4.6 2.6 5 3.5.5 1.4 1.6 1.6 6.7 1 3.3-.3 6.9-.9 7.8-1.1 1-.3 1.9.3 2.3 1.6.4 1.2 1.8 2.5 3.1 3s2.4 1.7 2.4 2.5c0 1.7.1 1.7-18.3 0-1.9-.2-3.2.4-4 1.5-.7 1.2-1.6 1.6-2.6 1.1-.9-.4-6.8-.8-13.3-1-11.2-.2-11.6-.2-12.3 2-1 3-1 21.3 0 22.8.7 1.2 7.1 1.1 17.5-.4 27.3-3.7 30.9-4.2 35-5 1.4-.3 4.1-.7 6.1-1 5.6-.7 16.7-3.4 21.1-5.2l3.9-1.6-.6-4.6c-.5-3.7-.1-5.7 1.9-10.4 1.4-3.1 2.4-5.7 2.2-5.7-.2 0 .6-3.5 1.8-7.8 2.5-8.9 4.6-10.2 5.8-3.4.8 5 3.5 9.7 7.3 13 2.3 2 2.5 2.8 1.9 6-1.2 6.9-1.2 11.1 0 11.5 2.4.9 11.9-.3 14.3-1.8l2.3-1.5V293.3l-22.6-21.9c-12.5-12-25.9-25.1-29.9-28.9l-7.2-7.1-14.2.1-14.1.1-3.4 3.3c-3.9 3.8-6.6 3.6-6.6-.4 0-2.8.3-2.7-6.5-2.9-4.5-.2-6.4.6-6.5 2.6 0 .5.9.8 2 .8s2 .4 2 1c0 .5-.5 1-1.1 1-.6 0-3.1 1.3-5.5 3l-4.4 2.9-6.5-1.4c-6.9-1.4-10.5-1.1-10.5 1.1 0 1.2-4.1 1.1-6.1-.2-.4-.2-4 .8-8.1 2.2-5.7 2.1-9.4 4.4-16.8 10.5-8 6.7-10 7.9-13.1 7.9-3.4 0-3.8-.3-5.7-4.8-3-7.1-5.3-14.2-5.9-18.5-.3-2.1-.6-4.6-.8-5.5-.2-.9-.4-2-.4-2.3-.3-1.8-5.4.2-10.1 3.9-3.5 2.8-6.3 4.2-8.2 4.2-1.6 0-2.7-.4-2.3-1 .3-.5 4.5-4.2 9.3-8.3 45.3-38.3 99.9-64 157.7-74.2 14.2-2.5 20.3-3.2 34.5-4.1 5.8-.3 10.6-.7 10.8-.8.5-.5 32 .2 39.7.8zm-233.1 85.9c-.7 1.9-2 2.2-2.9.7-.9-1.5 1.6-4.3 2.7-3.2.5.5.6 1.6.2 2.5zm48.9 26.2c-.6 1.8-3.4 1.6-4.1-.3-.2-.7.6-1.2 2.2-1.2 1.9 0 2.4.4 1.9 1.5zm66.9 2.6c2.2 4.2 2.3 9.7.2 12.7-1.8 2.6-4.1 2.8-6.6.5-2.8-2.5-2.5-11.9.4-15 2.7-2.9 3.8-2.6 6 1.8zM301 289.5c4.1.2 9 .4 10.8.4 2.5.1 3.2.5 3.2 2 0 1.1 1.2 2.9 2.6 4l2.7 2.1-3.5 1.4c-1.9.8-5.8 1.8-8.7 2.2-4.3.6-5.4.4-6.5-1.1-1.1-1.5-2.2-1.7-6.3-1.1-4 .5-5.2.3-6.5-1.1-3.7-4.3-2-10.8 2.5-9.8 1.2.3 5.6.7 9.7 1zm42 3.5c0 1.7-.7 4.5-1.6 6.2-1.5 3-1.7 3-6.7 2.4-2.9-.4-5.5-1-5.9-1.4-.4-.4.3-2.8 1.5-5.4l2.2-4.7 5.3-.1c5.1 0 5.2 0 5.2 3zm-95.2 3.1c.3 2.6.2 2.6-7.3 3.3-6.1.6-7.8.4-9.1-.9-.8-.8-2.1-1.5-2.7-1.5-.7-.1-.3-.9.9-1.8 1.6-1.4 3.9-1.7 10-1.7 7.8 0 7.9.1 8.2 2.6zm20.1-1.5c4.4.9 4.3 4.1-.1 4.2-3.5.1-5.8-1.3-5.8-3.4 0-1.5 1.2-1.7 5.9-.8zm92.2 1.4c.5 3.9.3 4.4-2.1 4.5-1.4.1-3.8.5-5.3.9-4 1-3.4-1.5 1.1-4.1 4.1-2.4 6.1-2.8 6.3-1.3zm424.5 23c0 2.2-.3 4-.8 4-.4 0-.8-1.8-.8-4s.4-4 .8-4 .8 1.8.8 4zm-315.8 12.9c1.1.6 1 1.1-.3 2.4-2.1 2.2-7.5 1.2-7.5-1.3 0-1.6 5.7-2.5 7.8-1.1zM436 357.1c0 2.2-.4 3.8-.8 3.5-.4-.3-2.5-.1-4.5.3-3.2.8-3.7.6-4.3-1.1-.8-2.5 1-4.4 5.6-5.6 1.9-.6 3.6-1.1 3.8-1.1.1-.1.2 1.7.2 4zm-36.1 11c2.4-1.3 3.7.2 1.7 1.8-1.1 1-10.6 1.4-10.6.5 0-2.3 1.4-3.1 4-2.2 2 .6 3.5.6 4.9-.1zM702 382.2c0 .4-2 .8-4.5.8s-4.5-.4-4.5-.8 2-.8 4.5-.8 4.5.4 4.5.8zm-10.4 1.8c0 2.1-2 2.7-3.1 1-.8-1.3.3-3 1.8-3 .7 0 1.3.9 1.3 2zm-386.2 11.7c.4.9-.5 1.3-2.9 1.3-3.6 0-4.6-1.5-2.4-3.7 1.3-1.3 4.5.2 5.3 2.4zm-52.1 1.5c1.4 2.5 1.5 3.3.5 4-.7.4-1.9.6-2.6.3-.8-.3-1.8-.5-2.3-.5-.5 0-.9-1.6-.9-3.5 0-4.6 2.8-4.7 5.3-.3zm318.5 8.6c.2 1.2 0 2.2-.5 2.2-1.6 0-3-1.5-3-3.3 0-2.6 3.1-1.7 3.5 1.1zm41.4 4.4c-1 1-1.5 1-2.1-.1-.5-.8-.7-2.1-.4-2.8.5-1.2.8-1.2 2.1.1s1.4 1.8.4 2.8zm-9.4-1.4c1.3.9.7 6.8-.8 7.7-2.6 1.6-6.3-4.6-4.5-7.5.7-1.2 3.5-1.3 5.3-.2zm96.2 19.1c0 2.1-.5 2.7-2.2 2.8-1.3 0-6.1.8-10.7 1.7-8.8 1.7-9.3 1.6-9.7-1.2-.2-1.2 1-2.2 3.8-3.4 3.7-1.6 4.3-1.6 5.8-.3 2.1 1.9 2.7 1.9 5.6-.4 1.3-1 3.5-1.9 4.9-1.9 2 0 2.5.5 2.5 2.7zm49.6 29.1c1 0 1.4 1.3 1.4 4 0 2.2-.1 4-.2 4.1-.2 0-2.4.3-4.9.5-4.5.5-4.7.4-5.1-2.4-.2-1.7-.1-4 .4-5.2.7-1.9 1.3-2.1 3.9-1.6 1.7.3 3.8.6 4.5.6zm-190.9 4.5l2.3 4-2.1 1.7c-2.6 2.2-6.8 2.3-7.5.3-1-2.6-3.5-1.6-5 2.1-1.3 3.1-1.8 3.5-4.7 3.2-2.3-.2-3.2-.8-3.1-2.1.1-.9.2-2.7.3-4 .3-5.1 7.8-10 14.6-9.4 2.3.1 3.5 1.1 5.2 4.2zm160.8.2c.1 3.7-.1 4-2.4 3.8-3.9-.3-3.8-.3-4.3-3.5-.4-2.5 0-3.1 2.1-3.9 3.8-1.4 4.5-.9 4.6 3.6zm65.2-1.5c.2 5.3-.2 5.9-3.6 4.7-2.3-.8-3.6-.7-6 .6L772 467l.2-4c.1-3.5.5-4.1 2.7-4.6 1.4-.3 3.1-.7 3.6-.9.6-.2 2.2-.4 3.6-.4 2.2-.1 2.5.3 2.6 3.1zm-252.1 4c-.7 5.1-2.6 9.1-2.6 5.5v-2.2c0-.3-.4-2.1-.9-4-.9-3.4-.4-4.2 2.8-4.4 1.1-.1 1.2 1 .7 5.1zM577 466c0 3.1.5 6.1 1.2 6.8.9.9.7 1.2-.8 1.2s-3.1-1.8-5.5-5.9c-2.8-4.9-3.7-5.7-5.1-5-1.3.7-1.8.6-1.8-.4 0-2.1.5-2.3 6.4-2.2h5.6v5.5zm118-3.6c0 4.4-2.1 5.3-8.9 4-4-.8-3.9-2 .2-3.8 4.3-1.9 8.7-2 8.7-.2zm28 28.7c0 2.3-.4 3-1.7 2.7-3-.6-1.8-5.4 1.5-5.8.1 0 .2 1.4.2 3.1zm-258.3 1.2c4.7 7 3.7 8.8-2.4 4.1-2.1-1.6-3.3-3.3-3.3-5 0-3.5 3-3.1 5.7.9zm-8.5 15.6c2.9 2.6 3.2 3.2 2.3 5.7-.6 1.6-2.2 3.4-3.5 4.1-2.2 1.1-2.5 1-2.8-.7-.4-2.5-1.8-2.6-2.5-.1-.7 3-4.3 2-3.9-1 .6-4.3 4-10.9 5.6-10.9.9 0 3 1.3 4.8 2.9zM397 516c0 1.1-.7 2-1.5 2s-1.5-.9-1.5-2 .7-2 1.5-2 1.5.9 1.5 2zm-22.9 2.9c.6.1.8 3.1.3 3.1-.2 0-1.5-.5-2.9-1.2-4.2-1.9-3.1-2.7 2.6-1.9zm.5 8.9c3.1 2 1.9 8.2-1.6 8.2-5.2 0-6.2-2.2-2.9-6.4 2.2-2.8 2.8-3 4.5-1.8zm90.8 8.7c.6 1.6-.2 4.5-1.3 4.5-1.2 0-5.1-3.1-5.1-4 0-.8 2-1.6 4.6-1.9.7 0 1.4.6 1.8 1.4zM614.7 553c-1.2 3.3-3.7 2.9-3.7-.5 0-1.7.6-2.3 2.4-2.3 2.1 0 2.2.3 1.3 2.8zm-147.1.6c-.3.9-.6 2-.6 2.5s-1.4.9-3.1.9c-2.4 0-3-.3-2.5-1.6.3-.9.6-2 .6-2.5s1.4-.9 3.1-.9c2.4 0 3 .3 2.5 1.6zm-10.6 8.9c0 .9-.9 1.5-2.5 1.5-2.4 0-3.2-1-1.8-2.3 1.2-1.3 4.3-.7 4.3.8zm-1.1 6.4c1.9 1.2.6 4.1-1.9 4.1-2.1 0-2.4-.8-1.4-3.4.7-1.8 1.3-1.9 3.3-.7zm9.1 4c-1.5 3 .5 4.4 6.9 4.9 6.3.5 7.9 1.7 3.6 2.8-1.4.3-3 1.5-3.6 2.5-.9 1.8-1.4 1.6-6.9-2.3-6.1-4.2-6.8-5.2-5-6.3.7-.4.7-1.2 0-2.5-1.2-2.3.5-3.1 3.7-1.7 1.7.7 2 1.4 1.3 2.6zm84.2 1.4c1.9.8 4.8.8 10 0 4.1-.6 8-.6 9-.2.9.5 3.3.9 5.2.9 3.4 0 3.6.2 3.6 3.5 0 3.8.2 3.8-8.4 1.9-1.9-.4-2.6-.3-2.2.4.4.6-.2 1.5-1.1 2.1-2.1 1-7-.6-9-3.1-1.1-1.2-2.4-1.3-7.5-.5-5.4.8-6.3.7-7.4-.8-1.7-2.3 1.1-7 3.5-5.9.9.3 2.8 1.1 4.3 1.7zm36.8 2.2c0 3-.3 3.5-2.4 3.5-2.5 0-3.9-1.9-2.8-3.7.6-.8 4.1-3.2 5-3.3.1 0 .2 1.6.2 3.5zm30.8-.4c5.6 1.9 2 4.7-8.3 6.2-1.6.3-3.7.6-4.5.8-1.1.3-1.6-.6-1.8-3.3-.3-3.5-.1-3.7 3-4.1 6.4-.8 8.5-.7 11.6.4zm78.9-.3c1 .7 1 1.2-.1 2.7-1.2 1.7-1.7 1.8-3.9.6-4-2.2-4.2-4.1-.4-4.1 1.8 0 3.8.4 4.4.8zm-238.9 6.1c5.3 3.9 5.5 4.4 3.5 8.5-1.8 3.8-2.2 4-7.1 3-2.8-.6-2.9-.7-1.8-3.6.9-2.5.7-3.5-1.2-6.9l-2.3-3.9h2.4c1.3 0 4.2 1.3 6.5 2.9zm-45.9 2c.6 1 .8 2.1.5 2.4-1 .9-5.4-1.5-5.4-3 0-2 3.8-1.6 4.9.6zm49.1 31.8c0 .5-.7 1.7-1.5 2.7-2 2.6-1.9 3.6.3 3.6.9 0 2.2-1 2.7-2.3.6-1.3 2-2.3 3.5-2.5 2.3-.3 2.6.1 2.7 3.3 0 2.4-.4 3.5-1.4 3.5-.7 0-2.4.7-3.7 1.5-1.6 1.1-3 1.3-4.7.7-1.3-.5-2.9-.7-3.5-.5-1.7.6-2.1-1.7-1.2-6.5.8-3.8 1.2-4.2 3.9-4.2 1.6 0 2.9.3 2.9.7zM233.9 622c2.7 1.2 5.4 3.2 6.2 4.6 1.2 2.3 1.7 2.5 5.7 1.9 2.5-.3 4.8-.7 5.1-.8.3-.1 1.7.6 2.9 1.5 1.8 1.2 2.2 2.2 1.7 3.8-.5 1.7-.9 1.9-1.5 1-1.1-1.8-14-.8-20 1.5-9.5 3.6-17.6 2.8-19.9-2.1-1.3-2.8-1.5-6.5-.3-6.3 4.4.7 9.2-2.6 9.2-6.4 0-1.6.5-1.9 3-1.3 1.7.3 5.2 1.5 7.9 2.6zm81.1 4.5c0 1.8-.5 2.5-2 2.5s-1.9-.6-1.8-2.5c.2-1.7.8-2.5 2-2.5 1.3 0 1.8.8 1.8 2.5zm-12.5 2.5c-.4 5.2-1.7 5.8-8.7 4.5-7.2-1.3-11.1-3.1-10.5-4.8.4-1.3 3.8-1.3 10-.2 2.9.5 3.8.3 4.3-.9.3-.9 1.6-1.6 2.9-1.6 1.9 0 2.2.5 2 3zm151.1-.3c.5 2.9-3.1 3.2-4.6.4-1.5-2.9-1.3-3.3 1.7-2.9 1.8.2 2.7 1 2.9 2.5zm11.2 5.3c1.5 1.3 2.5 3.3 2.7 5.7.6 6.5-2.6 9.2-7.1 5.8-1.8-1.4-1.8-1.5-.1-2.9 1.5-1.2 1.7-2.2 1.2-6-.8-5-.2-5.5 3.3-2.6zM318 636c1.1 0 2 .4 2 1 0 1.2-9.7 1.3-10.4.1-.4-.5-.3-1.6 0-2.5.5-1.4.9-1.4 3.4-.1 1.6.8 3.8 1.5 5 1.5zm31.5 2.6c0 1-.8 2-1.7 2.2-1.1.2-1.5-.2-1.3-1.5.2-1 .4-2.2.4-2.6.2-1.7 2.6 0 2.6 1.9zm40.7 13c-.6 3.4-5.2 3.5-5.2 0 0-2.6 1.4-3.6 4.1-2.9 1.1.3 1.4 1.2 1.1 2.9zm-96.6 1.6c-.1 1.8-.9 2.4-4.1 3-2.2.4-5.5.7-7.4.7-3.2.1-3.3 0-1.9-2.2 1.1-1.5 3.2-2.5 6.9-3.3 6.3-1.3 6.7-1.2 6.5 1.8zm-45.6 1.7c0 2.3-.4 2.8-1.8 2.4-1.1-.2-1.8-1.4-1.8-2.9 0-1.6.6-2.4 1.8-2.4 1.3 0 1.8.8 1.8 2.9zm26.1-1.9c2.5 1.4 2.4 2.9-.3 3.9-4.1 1.5-6.4-.9-3.6-3.7 1.5-1.5 1.5-1.5 3.9-.2zM612 758.4c23.6.8 31.1 1 60.5 2.2 9.9.4 19 .7 20.3.8 1.2 0 2.2.3 2.2.7 0 1-17.1 12.4-28.5 18.9-15.7 9.1-38.2 19.4-54.5 25.1-14.9 5.2-38.6 11.6-49.5 13.4-11.3 1.9-31.5 4.5-37.5 4.9-8.2.6-45 .7-49 .2-1.4-.2-5.6-.7-9.5-1-47.5-4.7-95.2-20.3-137-44.9-8-4.7-23.5-15.1-23.1-15.4.6-.7 15.3-1.4 70.1-3.8 5.5-.2 24.2-.7 41.5-1 17.3-.4 31.6-.8 31.8-.9.5-.6 141.4.2 162.2.8z"/><path d="M315 238.1c0 3.7 1.5 4.5 4.6 2.4 3.5-2.3 2.8-4.9-1.4-5.1-2.9-.1-3.2.2-3.2 2.7zM329.2 236.6c-1.9 1.4-2.2 1.2 5.2 3.2 2.5.7 4.5.8 5.7.2 1-.6 3-1 4.5-1 2.7 0 2.7-.1 1.1-1.7-2.1-2.1-13.9-2.6-16.5-.7zM237.9 362.2c-1 3.5-.7 4.9.8 4.6 2.3-.4 3.1-4.8.9-4.8-.9 0-1.6.1-1.7.2zM510.1 425.7c-1.3 2.7-1.6 4.5-1 6 1.1 2.9 2.4 2.9 6.1-.2 1.6-1.4 3.6-2.5 4.4-2.5 2.9 0 1.3-3.5-2.5-5.3-2-.9-4-1.7-4.4-1.7-.4 0-1.5 1.7-2.6 3.7zM511 620.5c-1.1 1.3-.8 1.5 1.9 1.5 2.1 0 3.1-.5 3.1-1.5 0-.8-.8-1.5-1.9-1.5-1 0-2.4.7-3.1 1.5zM700.2 632.6c-6.3 1.8-10.2 4.3-10.2 6.4 0 1.1.7 3.7 1.5 5.8l1.6 3.9 4.7-.8c10.1-1.6 11.8-2.1 15.7-3.9 3.5-1.7 4.6-1.8 8-.8 4.9 1.4 4.2 1.3 9 2.1 9 1.7 10.4 1.6 11-.2.5-1.7 1-1.7 6.4-.6 3.1.6 7.1 1.8 8.7 2.6 2.5 1.3 3.6 1.3 8.4 0 3-.8 10-1.6 15.5-1.8 9.9-.4 10-.5 14.5-4.3 6.2-5.4 4.9-6.4-8.3-6.5-5.6-.1-11 .3-12 .7-1.1.6-2.3.6-3 0-.7-.5-5.2-.8-10.1-.7-7.1.1-9.3-.2-11.1-1.7-3.1-2.4-4.3-2.3-5.7.8-1.1 2.3-1.5 2.5-5.7 1.8-2.5-.4-7.7-.7-11.6-.8-6.4-.2-7.2 0-9.7 2.5l-2.7 2.6-1.9-2.1c-1.1-1.1-2.5-3.1-3.1-4.3-1.3-2.5-3.5-2.6-9.9-.7zM537.2 634.5c-7.9 2.4-9.1 5.2-4.6 11.1 2.5 3.3 2.8 3.4 4.5 1.8 1-.9 1.7-2.1 1.6-2.6-.1-.6.6-1.2 1.6-1.3 1.1-.2 1.7.3 1.7 1.6 0 2.6 4.9 2.6 8.1 0l2.3-1.9-3-2.5c-1.6-1.4-3.6-3.7-4.3-5.1-1.6-2.9-1.9-3-7.9-1.1z"/><path d="M560 636.5c-.7.8-1 1.5-.8 1.5.3 0 .2 2.1-.3 4.7-1.1 5.8-4.7 10.6-9.1 11.9-3.5 1.1-4.8 1.1-11 .1-3.2-.6-3.9-.3-4.9 1.4-1.5 2.9.2 5.8 5.3 9.2 2.7 1.7 4.9 2.5 6.4 2.1 2.9-.7 4.3 1.5 1.9 3.2-1.6 1.2-1.4 1.8 3.6 7 3 3.2 8.7 9.1 12.8 13.2l7.5 7.4 25-.6c13.8-.4 27.1-.6 29.6-.5 4.2.1 7.9.1 14 0 1.4 0 23.7.2 49.7.5l47.2.5 8.8-7.9c9.6-8.7 14.3-13.9 14.3-15.9 0-.9-1.5-1.3-4.5-1.3-4.8 0-5.6-1.1-3.4-5.1.7-1.4 1.6-1.8 2.7-1.4.9.4 4.3.8 7.5 1 5.4.2 5.9 0 9.8-3.7 2.2-2.1 3.9-4.4 3.7-5-.6-1.8-8.3-3.7-10.4-2.5-1.2.7-1.9.7-2.1 0-.3-.7-1.8-.8-4.6-.1-2.8.6-6.3.5-10.7-.3-11.6-2.1-14-2.1-20.8-.5-7.7 1.8-16.2 1.7-17.7-.2-.8-1-2.1-1.1-5.1-.4-3.4.8-4.5.6-6.5-.9-3.2-2.5-3.9-2.4-8.5.9-4.5 3.1-10.7 3.5-14.5.8-2.9-2-6.8-2.1-7.5-.1-.9 2.2-4.7 1.8-11.8-1-4.4-1.8-7.4-2.3-10.2-2-2.1.3-5.8.7-8.1.9-4.1.4-4.2.3-3.9-2.4.2-1.5 1.1-4.1 2.2-5.9 1.4-2.4 1.6-3.6.8-4.9-.9-1.4-3-1.7-12-2-13.8-.4-15.4 0-15.4 3.6s1.1 5 3.5 4.6c1.1-.2 3.8-.7 6.1-1l4-.6 1.1 4.6c1.2 5.4.5 6.3-3.4 4.2-2.6-1.3-12.1-1.4-14.2-.2-.4.3-2.4-.3-4.4-1.4-3.5-1.9-3.6-1.9-6.1.1-2.1 1.7-4.3 2-16 2.3l-13.4.3 5-4.6c2.8-2.5 5.8-5.1 6.7-5.8 2.6-1.9.1-4.5-6.5-7-7.1-2.6-9.7-2.8-11.4-.8zm73.5 29.4c12.3 2.2 16.5 2.4 16.5.7 0-2 1.9-2 4.1 0 1.4 1.2 2.2 1.3 3.8.4 1.6-.8 2.1-.8 2.1.1 0 .7.7.8 1.8.4 3.2-1.4 6.1-1.3 7.3.1 1.8 2.2.4 2.8-5.9 2.9-5.5 0-10.2 1.6-10.2 3.4 0 .5-2.4 0-5.2-1.1-4.1-1.6-8.3-2.2-18.8-2.5-7.4-.2-13.9-.4-14.5-.4-.5-.1-3.7.2-7.1.6-5.1.6-6.2.5-6.7-.9-.6-1.5.7-2.1 4.1-1.7.7.1 2.5-.5 4-1.4 2.6-1.6 3.1-1.6 6.6-.1 4 1.6 6 1.2 8.6-1.9.8-1 1.7-1.2 2.4-.6.6.5 3.8 1.4 7.1 2zm-57.7-.6c1.8 1.2 1.7 14.7-.2 14.7-1.8 0-7.7-11.6-7-13.5.8-2.1 4.7-2.7 7.2-1.2zm105.7.6c.3.5 1.9 1.2 3.5 1.6 2.6.6 3 1.1 3 4v3.3l-3.8-1c-5.5-1.4-8.6-4-7.7-6.6.6-2.2 3.9-3 5-1.3zM586 669c2.5 1.3 1.5 4-1.4 4-1.7 0-2.2-.6-2.2-2.5 0-2.7.7-3 3.6-1.5zm149 .5c0 1-1 1.5-2.9 1.5-1.6 0-3.1-.6-3.5-1.5-.4-1.2.3-1.5 2.9-1.5 2.4 0 3.5.5 3.5 1.5z"/><path d="M668.2 637.2c-.7.7-1.2 2-1.2 2.9 0 1.9 5.7 7.9 7.5 7.9 2.1 0 4.7-3.8 4.3-6.2-.4-3.3-8.4-6.8-10.6-4.6zM515.5 639c-.3.5.6 2 2.1 3.2 1.5 1.3 3.3 2.9 4 3.6 1.7 1.7 3.3.8 2.9-1.6-.2-.9-.4-1.9-.4-2.2-.1-.8-5.7-4-6.9-4-.6 0-1.4.4-1.7 1zM586.5 639.9c-.8 2.6.5 5.3 2.4 4.9 1-.2 1.7-1.5 1.9-3.6.3-2.6 0-3.2-1.7-3.2-1.1 0-2.2.8-2.6 1.9zM642.7 640.2c-2.1 1.8-2.4 2.7-1.7 4.5.7 1.8 1.7 2.3 4.3 2.3 1.9 0 4-.6 4.6-1.4.7-.9 2.7-1.2 5.9-.9 5.3.4 7.6-.6 6.6-3.1-.5-1.2-1.2-1.5-2.8-.9-3.3 1.2-9.2.6-11.9-1.2-2.4-1.5-2.6-1.5-5 .7z"/></svg>